<svg width="32" height="32" viewBox="0 0 32 32" fill="none" xmlns="http://www.w3.org/2000/svg">
<path d="M26.0002 18.096L16.0002 28L6.00024 18.096C5.34065 17.4542 4.8211 16.6827 4.4743 15.8302C4.12751 14.9777 3.96099 14.0626 3.98522 13.1426C4.00946 12.2226 4.22392 11.3175 4.61512 10.4845C5.00631 9.65142 5.56575 8.90837 6.25822 8.30214C6.95069 7.69591 7.76118 7.23962 8.63865 6.96201C9.51613 6.6844 10.4416 6.59148 11.3567 6.6891C12.2719 6.78672 13.1569 7.07277 13.9561 7.52924C14.7552 7.98571 15.4512 8.6027 16.0002 9.34137C16.5516 8.60806 17.2484 7.99646 18.047 7.54484C18.8457 7.09322 19.7289 6.8113 20.6415 6.71673C21.5541 6.62215 22.4763 6.71696 23.3506 6.99522C24.2249 7.27348 25.0323 7.7292 25.7223 8.33385C26.4123 8.9385 26.9701 9.67908 27.3608 10.5092C27.7515 11.3394 27.9666 12.2412 27.9927 13.1583C28.0187 14.0754 27.8553 14.988 27.5124 15.839C27.1696 16.69 26.6548 17.4611 26.0002 18.104" stroke="white" stroke-width="1.5" stroke-linecap="round" stroke-linejoin="round"/>
</svg>
