<svg width="16" height="16" viewBox="0 0 16 16" fill="none" xmlns="http://www.w3.org/2000/svg">
<path d="M3.66674 3.33331H12.3334C12.4294 3.36699 12.5164 3.42219 12.5878 3.49469C12.6592 3.56719 12.7131 3.65507 12.7452 3.75159C12.7774 3.84812 12.7871 3.95073 12.7735 4.05156C12.7598 4.15239 12.7233 4.24877 12.6667 4.33331L9.3334 7.99998V12.6666L6.66674 10.6666V7.99998L3.3334 4.33331C3.2768 4.24877 3.2403 4.15239 3.22669 4.05156C3.21309 3.95073 3.22274 3.84812 3.25491 3.75159C3.28709 3.65507 3.34093 3.56719 3.41231 3.49469C3.4837 3.42219 3.57073 3.36699 3.66674 3.33331Z" stroke="#07195C" stroke-width="1.5" stroke-linecap="round" stroke-linejoin="round"/>
</svg>
