<svg width="24" height="24" viewBox="0 0 24 24" fill="none" xmlns="http://www.w3.org/2000/svg">
<path d="M19.4998 13.572L11.9998 21L4.49981 13.572C4.00512 13.0906 3.61546 12.512 3.35536 11.8726C3.09527 11.2333 2.97037 10.5469 2.98855 9.85693C3.00673 9.16691 3.16758 8.48813 3.46097 7.86333C3.75436 7.23853 4.17395 6.68125 4.6933 6.22657C5.21265 5.7719 5.82052 5.42968 6.47862 5.22147C7.13673 5.01327 7.83082 4.94358 8.51718 5.0168C9.20354 5.09001 9.86731 5.30455 10.4667 5.6469C11.0661 5.98925 11.5881 6.45199 11.9998 7.00599C12.4133 6.45602 12.936 5.99731 13.5349 5.6586C14.1339 5.31988 14.7963 5.10844 15.4807 5.03751C16.1652 4.96658 16.8569 5.03769 17.5126 5.24639C18.1683 5.45508 18.7738 5.79687 19.2914 6.25036C19.8089 6.70385 20.2272 7.25928 20.5202 7.88189C20.8132 8.50449 20.9746 9.18088 20.9941 9.8687C21.0137 10.5565 20.8911 11.241 20.6339 11.8792C20.3768 12.5175 19.9907 13.0958 19.4998 13.578" fill="#E3453A"/>
<path d="M19.4998 13.572L11.9998 21L4.49981 13.572C4.00512 13.0906 3.61546 12.512 3.35536 11.8726C3.09527 11.2333 2.97037 10.5469 2.98855 9.85693C3.00673 9.16691 3.16758 8.48813 3.46097 7.86333C3.75436 7.23853 4.17395 6.68125 4.6933 6.22657C5.21265 5.7719 5.82052 5.42968 6.47862 5.22147C7.13673 5.01327 7.83082 4.94358 8.51718 5.0168C9.20354 5.09001 9.86731 5.30455 10.4667 5.6469C11.0661 5.98925 11.5881 6.45199 11.9998 7.00599C12.4133 6.45602 12.936 5.99731 13.5349 5.6586C14.1339 5.31988 14.7963 5.10844 15.4807 5.03751C16.1652 4.96658 16.8569 5.03769 17.5126 5.24639C18.1683 5.45508 18.7738 5.79687 19.2914 6.25036C19.8089 6.70385 20.2272 7.25928 20.5202 7.88189C20.8132 8.50449 20.9746 9.18088 20.9941 9.8687C21.0137 10.5565 20.8911 11.241 20.6339 11.8792C20.3768 12.5175 19.9907 13.0958 19.4998 13.578" stroke="#E3453A" stroke-width="1.5" stroke-linecap="round" stroke-linejoin="round"/>
</svg>
